<svg width="18" height="18" viewBox="0 0 18 18" fill="none" xmlns="http://www.w3.org/2000/svg">
<path d="M1.42352 7.52924L4.43247 10.968L4.00186 15.7047C3.98544 15.8854 4.06813 16.0607 4.21794 16.163C4.36775 16.2652 4.56118 16.2783 4.72341 16.1972L8.9998 14.059L13.2762 16.1972C13.4384 16.2783 13.6319 16.2652 13.7817 16.163C13.9315 16.0607 14.0142 15.8854 13.9978 15.7047L13.5671 10.968L16.5761 7.52924C16.6936 7.39495 16.7306 7.20822 16.6733 7.03925C16.6159 6.87028 16.4728 6.74469 16.2979 6.7097L12.0148 5.85308L9.42855 1.54274C9.33819 1.39214 9.17544 1.29999 8.9998 1.29999C8.82417 1.29999 8.66142 1.39214 8.57106 1.54274L5.98486 5.85308L1.70175 6.7097C1.52677 6.74469 1.38371 6.87028 1.32635 7.03925C1.26898 7.20822 1.30601 7.39495 1.42352 7.52924Z" fill="#FFC62B" stroke="#FFC62B" stroke-linecap="round" stroke-linejoin="round"/>
</svg>
