<svg width="18" height="18" viewBox="0 0 18 18" fill="none" xmlns="http://www.w3.org/2000/svg">
<path d="M3.06187 9.375C3.02092 9.25421 3.00002 9.12754 3 9C3.02685 8.6278 3.19943 8.28122 3.48027 8.03548C3.7611 7.78975 4.12753 7.66471 4.5 7.6875C4.87247 7.66471 5.2389 7.78975 5.51973 8.03548C5.80057 8.28122 5.97315 8.6278 6 9C5.99998 9.12754 5.97908 9.25421 5.93813 9.375H7.875V7.13587C7.875 7.03267 7.90328 6.93145 7.95676 6.84319C8.01025 6.75493 8.08689 6.68301 8.17838 6.63525C8.26726 6.58814 8.36737 6.56631 8.4678 6.57213C8.56823 6.57795 8.66515 6.61119 8.748 6.66825C8.82151 6.72093 8.90956 6.74949 9 6.75C9.30488 6.75 9.5625 6.4065 9.5625 6C9.5625 5.5935 9.30488 5.25 9 5.25C8.90968 5.25051 8.8217 5.27879 8.748 5.331C8.66507 5.38805 8.5681 5.42129 8.46761 5.42711C8.36712 5.43293 8.26696 5.4111 8.178 5.364C8.08648 5.31641 8.00981 5.24458 7.95637 5.15635C7.90293 5.06812 7.87478 4.9669 7.875 4.86375V2.625H2.625C2.22718 2.625 1.84564 2.78304 1.56434 3.06434C1.28304 3.34564 1.125 3.72718 1.125 4.125V9.375H3.06187Z" fill="#1F1F1F"/>
<path d="M9.56239 4.24688C9.65919 4.16381 9.76888 4.09706 9.88714 4.04926C10.2424 3.93492 10.6285 3.9653 10.9615 4.13378C11.2946 4.30227 11.5478 4.59529 11.6661 4.94926C11.8267 5.2861 11.848 5.67267 11.7253 6.0251C11.6027 6.37753 11.346 6.66737 11.011 6.83176C10.8927 6.87923 10.7674 6.90722 10.6401 6.91463L11.3658 8.71051L13.4418 7.87163C13.5374 7.83278 13.6418 7.82098 13.7437 7.83752C13.8455 7.85405 13.9409 7.89829 14.0193 7.96538C14.0962 8.03023 14.154 8.1149 14.1862 8.21022C14.2185 8.30555 14.224 8.40788 14.2023 8.50613C14.1812 8.59347 14.1878 8.68517 14.221 8.76863C14.3257 8.90157 14.4706 8.99694 14.6341 9.04041C14.7976 9.08387 14.9708 9.07308 15.1277 9.00965C15.2845 8.94622 15.4165 8.83358 15.5038 8.68868C15.5912 8.54378 15.6291 8.37444 15.6119 8.20613C15.5775 8.12256 15.5181 8.0516 15.442 8.00288C15.358 7.94742 15.2908 7.86992 15.2478 7.77885C15.2048 7.68778 15.1877 7.58665 15.1983 7.48651C15.2082 7.38389 15.2461 7.28597 15.3078 7.20344C15.3696 7.1209 15.4529 7.05693 15.5485 7.01851L17.6249 6.18113L15.6584 1.31251C15.5846 1.12981 15.4756 0.963429 15.3375 0.822877C15.1994 0.682326 15.035 0.570355 14.8537 0.493359C14.6723 0.416364 14.4775 0.375853 14.2805 0.374141C14.0835 0.372429 13.8881 0.409549 13.7054 0.483382L8.83789 2.45138L9.56239 4.24688Z" fill="#1F1F1F"/>
<path d="M13.4381 10.125C13.4791 10.2458 13.5 10.3725 13.5 10.5C13.4731 10.8722 13.3006 11.2188 13.0197 11.4645C12.7389 11.7102 12.3725 11.8353 12 11.8125C11.6275 11.8353 11.2611 11.7102 10.9803 11.4645C10.6994 11.2188 10.5269 10.8722 10.5 10.5C10.5 10.3725 10.5209 10.2458 10.5619 10.125H8.625V12.3638C8.62522 12.4669 8.59707 12.5681 8.54363 12.6564C8.49019 12.7446 8.41352 12.8164 8.322 12.864C8.23318 12.9112 8.13311 12.9332 8.03268 12.9275C7.93225 12.9218 7.8353 12.8887 7.75238 12.8317C7.67872 12.7791 7.59055 12.7505 7.5 12.75C7.19512 12.75 6.9375 13.0935 6.9375 13.5C6.9375 13.9065 7.19512 14.25 7.5 14.25C7.59072 14.2494 7.67903 14.2207 7.75275 14.1679C7.83561 14.1111 7.93239 14.0781 8.03265 14.0724C8.1329 14.0666 8.23282 14.0884 8.32162 14.1353C8.41313 14.183 8.4898 14.2549 8.54329 14.3432C8.59678 14.4314 8.62504 14.5327 8.625 14.6359V16.875H13.875C14.2728 16.875 14.6544 16.717 14.9357 16.4357C15.217 16.1544 15.375 15.7728 15.375 15.375V10.125H13.4381Z" fill="#1F1F1F"/>
<path d="M7.875 14.9381C7.75421 14.9791 7.62754 15 7.5 15C7.1278 14.9731 6.78122 14.8006 6.53548 14.5197C6.28975 14.2389 6.16471 13.8725 6.1875 13.5C6.16471 13.1275 6.28975 12.7611 6.53548 12.4803C6.78122 12.1994 7.1278 12.0269 7.5 12C7.62754 12 7.75421 12.0209 7.875 12.0619V10.125H5.63625C5.5331 10.1252 5.43188 10.0971 5.34365 10.0436C5.25542 9.99019 5.18359 9.91352 5.136 9.822C5.08878 9.73318 5.06682 9.63311 5.07251 9.53268C5.0782 9.43225 5.11131 9.3353 5.16825 9.25238C5.22093 9.17872 5.24949 9.09055 5.25 9C5.25 8.69512 4.9065 8.4375 4.5 8.4375C4.0935 8.4375 3.75 8.69512 3.75 9C3.75056 9.09072 3.77926 9.17903 3.83212 9.25275C3.88898 9.33556 3.92208 9.43235 3.92783 9.53263C3.93358 9.63292 3.91177 9.73286 3.86475 9.82162C3.81702 9.91313 3.74511 9.9898 3.65684 10.0433C3.56858 10.0968 3.46733 10.125 3.36412 10.125H1.125V15.375C1.125 15.7728 1.28304 16.1544 1.56434 16.4357C1.84564 16.717 2.22718 16.875 2.625 16.875H7.875V14.9381Z" fill="#1F1F1F"/>
</svg>
