<svg width="18" height="18" viewBox="0 0 18 18" fill="none" xmlns="http://www.w3.org/2000/svg">
<path d="M10.079 4.19439C10.1473 3.94583 10.1816 3.7388 10.1808 3.57901C10.1748 2.20648 9.08191 1.08984 7.74471 1.08984C6.40143 1.08984 5.30859 2.20613 5.30859 3.5782C5.30859 3.67007 5.3138 3.76425 5.3241 3.85808C5.34182 4.0197 5.37518 4.17688 5.42229 4.32935C5.4797 4.51512 5.55796 4.69375 5.65812 4.86306C5.66023 4.86664 5.66219 4.87027 5.66406 4.87399L6.46193 6.47089L7.70358 8.95602C8.20083 8.14387 9.67433 5.66684 10.079 4.19439ZM6.40677 3.36016C6.40677 2.58521 7.03723 1.95476 7.81218 1.95476C8.58712 1.95476 9.21758 2.58521 9.21758 3.36016C9.21758 4.13508 8.58712 4.76557 7.81218 4.76557C7.03723 4.76554 6.40677 4.13508 6.40677 3.36016Z" fill="#8E8E8E"/>
<path d="M6.48047 16.2285L11.5196 16.8858V11.9364L6.48047 10.9916V16.2285Z" fill="#8E8E8E"/>
<path d="M5.28363 4.91257C5.27653 4.89907 5.27003 4.88536 5.26317 4.87175C5.24879 4.84321 5.23466 4.81462 5.22127 4.78569C5.21374 4.76945 5.2066 4.75303 5.1994 4.73665C5.18755 4.70968 5.17602 4.68258 5.16502 4.65533C5.15816 4.63828 5.15141 4.62119 5.14491 4.60404C5.13436 4.57633 5.12437 4.54846 5.11471 4.52047C5.10898 4.50388 5.10314 4.48732 5.09773 4.47062C5.0876 4.4394 5.07828 4.4079 5.06925 4.3763C5.06535 4.36272 5.06113 4.34929 5.05744 4.33565C5.0452 4.29034 5.03392 4.24471 5.0239 4.19869C5.0226 4.19278 5.02168 4.18677 5.02042 4.18083C5.01296 4.14542 5.00576 4.10992 4.9996 4.07413L1.08984 4.58403V10.582H6.12889V6.59096L5.35229 5.03664C5.32828 4.99575 5.30553 4.95433 5.28363 4.91257Z" fill="#8E8E8E"/>
<path d="M8.8655 3.36018C8.8655 2.77908 8.39275 2.30634 7.81166 2.30634C7.23056 2.30634 6.75781 2.77908 6.75781 3.36018C6.75781 3.94128 7.23056 4.41402 7.81166 4.41402C8.39275 4.41402 8.8655 3.94124 8.8655 3.36018Z" fill="#8E8E8E"/>
<path d="M11.8711 11.9782V16.8858L16.9101 16.2285V9.9628L11.8778 11.9757C11.8756 11.9766 11.8733 11.9774 11.8711 11.9782Z" fill="#8E8E8E"/>
<path d="M11.8711 4.58401V11.5997L16.9101 9.58407V3.92673L11.8711 4.58401Z" fill="#8E8E8E"/>
<path d="M1.08984 16.8858L6.12889 16.2284V10.9336H1.08984V16.8858Z" fill="#8E8E8E"/>
<path d="M10.3705 4.44962C10.3665 4.46281 10.3622 4.47617 10.358 4.48949C10.3529 4.5057 10.3478 4.52198 10.3425 4.53836C10.3381 4.55175 10.3336 4.56529 10.3291 4.57879C10.3236 4.59538 10.3181 4.61198 10.3124 4.62875C10.3078 4.64242 10.303 4.6562 10.2983 4.66995C10.2925 4.68675 10.2866 4.70356 10.2806 4.7205C10.2757 4.73446 10.2707 4.74852 10.2656 4.76259C10.2594 4.7796 10.2533 4.79662 10.247 4.81377C10.2418 4.82801 10.2365 4.84232 10.2312 4.85663C10.2247 4.87382 10.2183 4.89108 10.2117 4.90845C10.2063 4.9229 10.2007 4.93742 10.1951 4.95194C10.1884 4.96937 10.1816 4.98681 10.1748 5.00435C10.1691 5.01901 10.1633 5.03368 10.1575 5.04841C10.1505 5.06609 10.1434 5.08384 10.1362 5.10163C10.1304 5.11626 10.1244 5.13092 10.1185 5.14558C10.1111 5.16382 10.1036 5.18211 10.096 5.20042C10.0901 5.21487 10.0841 5.22935 10.078 5.24387C10.0703 5.26237 10.0625 5.28093 10.0547 5.29953C10.0485 5.31419 10.0423 5.32892 10.036 5.34365C10.0281 5.36218 10.0201 5.38074 10.0121 5.39934C10.0056 5.41424 9.99922 5.42918 9.99268 5.44412C9.98456 5.46286 9.9763 5.4816 9.96804 5.50041C9.9615 5.51521 9.955 5.53001 9.94839 5.54485C9.93988 5.56404 9.93127 5.58327 9.92265 5.60254C9.91608 5.61716 9.90954 5.63175 9.90293 5.64638C9.8941 5.66586 9.88521 5.6854 9.87628 5.70495C9.86964 5.7195 9.86303 5.73402 9.85631 5.74861C9.84724 5.76837 9.83803 5.78816 9.82886 5.80796C9.82218 5.82241 9.81546 5.83685 9.80871 5.8513C9.79943 5.8711 9.79011 5.89096 9.78073 5.91082C9.77391 5.92538 9.76705 5.9399 9.76016 5.95445C9.7506 5.97456 9.74096 5.99474 9.73133 6.01489C9.72455 6.02909 9.71776 6.04329 9.71091 6.0575C9.70099 6.07813 9.69097 6.0988 9.68092 6.11944C9.67427 6.13322 9.66759 6.14697 9.66091 6.16071C9.65065 6.1817 9.64035 6.20269 9.63001 6.22371C9.62337 6.23728 9.61669 6.25082 9.61001 6.26439C9.59953 6.28562 9.58895 6.30689 9.5784 6.32813C9.57179 6.34131 9.56529 6.35453 9.55864 6.36775C9.54771 6.38965 9.53671 6.41148 9.52567 6.43335C9.51934 6.44587 9.51312 6.45842 9.50675 6.47093C9.49466 6.49487 9.4825 6.51875 9.47033 6.54265C9.46513 6.55288 9.45993 6.56311 9.45472 6.57331C9.44178 6.59866 9.42878 6.6239 9.41577 6.64918C9.41109 6.65825 9.40645 6.66735 9.40178 6.67642C9.38698 6.70507 9.3721 6.73369 9.35723 6.76227C9.35446 6.76762 9.35168 6.773 9.3489 6.77834C9.33153 6.81163 9.31417 6.84486 9.29673 6.87794C9.29631 6.87875 9.29589 6.87955 9.29546 6.88036C9.24146 6.98295 9.18725 7.08455 9.13311 7.18478C9.13178 7.18724 9.13044 7.1897 9.12911 7.19216C9.11258 7.22275 9.09609 7.25319 9.07961 7.2835C9.07595 7.29018 9.07236 7.29679 9.06871 7.30347C9.05461 7.32934 9.04048 7.35518 9.02641 7.38085C9.02107 7.39055 9.0158 7.40015 9.01045 7.40985C8.99804 7.43242 8.98563 7.45499 8.97326 7.47739C8.96753 7.48776 8.96183 7.49802 8.95614 7.50832C8.94411 7.53005 8.93209 7.55174 8.92014 7.57326C8.91427 7.5838 8.90843 7.59425 8.90256 7.60476C8.89096 7.62557 8.87939 7.64635 8.86786 7.66698C8.86157 7.67823 8.85534 7.68934 8.84905 7.70052C8.83784 7.72049 8.82666 7.74046 8.81551 7.76025C8.80946 7.77098 8.80349 7.78156 8.79744 7.79225C8.78623 7.81214 8.77498 7.83201 8.76383 7.85169C8.75775 7.86242 8.75174 7.873 8.74569 7.88365C8.73469 7.90295 8.72375 7.92225 8.71286 7.94134C8.7066 7.95235 8.70041 7.96318 8.69419 7.97404C8.68364 7.99253 8.67309 8.01095 8.66265 8.0292C8.65643 8.04006 8.65024 8.05078 8.64405 8.06158C8.63368 8.07961 8.62335 8.09761 8.61308 8.11544C8.60675 8.12637 8.60053 8.1372 8.59424 8.14803C8.58418 8.16543 8.5742 8.18273 8.56425 8.19988C8.55813 8.21043 8.55205 8.22091 8.54597 8.23138C8.53605 8.24843 8.52621 8.26541 8.51644 8.28218C8.51021 8.29287 8.50406 8.30342 8.49787 8.314C8.48842 8.33017 8.47903 8.34627 8.46971 8.3622C8.46356 8.37267 8.45748 8.38305 8.4514 8.39345C8.44212 8.40927 8.43291 8.42499 8.42373 8.44056C8.41786 8.45055 8.41206 8.46039 8.40626 8.47027C8.39691 8.48612 8.38762 8.50184 8.37845 8.51741C8.37296 8.52666 8.36755 8.53584 8.36214 8.54498C8.35317 8.56013 8.34431 8.5751 8.33549 8.58998C8.32983 8.5995 8.3242 8.60896 8.31865 8.61838C8.31 8.6329 8.30146 8.64725 8.29302 8.66148C8.28764 8.67052 8.2823 8.67948 8.27699 8.68838C8.2688 8.70212 8.26068 8.71569 8.25266 8.72916C8.24718 8.7383 8.24173 8.74737 8.23635 8.75637C8.22837 8.76969 8.22049 8.78281 8.21269 8.79582C8.20773 8.80408 8.20277 8.8123 8.19789 8.82043C8.19019 8.83326 8.18259 8.84584 8.17507 8.85832C8.17001 8.86669 8.16498 8.87502 8.16006 8.88321C8.15275 8.89531 8.14561 8.90712 8.13851 8.91886C8.1339 8.92649 8.1293 8.93408 8.12476 8.94157C8.11745 8.95367 8.11028 8.96541 8.10321 8.97712C8.09913 8.98383 8.09505 8.99055 8.09105 8.99712C8.0838 9.009 8.07681 9.02053 8.06981 9.03196C8.06605 9.03815 8.06225 9.04437 8.05856 9.05042C8.05181 9.06146 8.04531 9.07214 8.0388 9.08273C8.03525 9.08849 8.0317 9.09436 8.02822 9.09999C8.02168 9.11064 8.01539 9.12091 8.00917 9.1311C8.006 9.13623 8.00277 9.14151 7.99968 9.1465C7.99342 9.15669 7.98741 9.16643 7.98143 9.17614C7.97862 9.18067 7.97577 9.18531 7.97303 9.18974C7.96733 9.19899 7.96195 9.20774 7.95654 9.21646C7.9538 9.22089 7.95098 9.2255 7.94831 9.22978C7.94371 9.23727 7.93935 9.24427 7.93499 9.25133C7.93182 9.25643 7.92859 9.26167 7.92557 9.26656C7.91977 9.27587 7.91439 9.28459 7.90908 9.29307C7.9083 9.2943 7.90746 9.29563 7.90672 9.29686C7.90085 9.30628 7.89537 9.31511 7.89016 9.32344C7.88964 9.32428 7.88904 9.32523 7.88851 9.32608C7.88457 9.33241 7.88099 9.33817 7.87744 9.34383C7.87572 9.34661 7.87385 9.34956 7.87223 9.35216C7.86935 9.35677 7.86689 9.36071 7.86432 9.36478C7.86267 9.36739 7.86088 9.37027 7.85937 9.37269C7.85191 9.38458 7.84604 9.39393 7.84168 9.40082C7.84147 9.40121 7.84116 9.40166 7.84095 9.40201C7.83873 9.40553 7.83694 9.40838 7.83564 9.41042C7.83149 9.41703 7.82688 9.42318 7.822 9.42908C7.8207 9.43063 7.81918 9.43197 7.81785 9.43348C7.81409 9.43766 7.81032 9.44181 7.80621 9.44561C7.80442 9.44726 7.80245 9.44867 7.80059 9.45025C7.79668 9.45355 7.79275 9.45686 7.7886 9.45978C7.78638 9.46136 7.78403 9.46266 7.78174 9.46414C7.77773 9.4667 7.77373 9.46927 7.76951 9.47152C7.76684 9.47296 7.76402 9.47412 7.76128 9.47539C7.75727 9.47725 7.7533 9.47911 7.74919 9.48066C7.74606 9.48185 7.74282 9.4828 7.73966 9.48379C7.73576 9.48502 7.73186 9.48625 7.72785 9.4872C7.72437 9.48804 7.72085 9.4886 7.71734 9.48924C7.71347 9.48994 7.70957 9.49061 7.70563 9.49103C7.70204 9.49142 7.69846 9.49156 7.69484 9.49173C7.69227 9.49184 7.68974 9.49223 7.68717 9.49223C7.68422 9.49223 7.68127 9.49216 7.67828 9.49198C7.61493 9.48878 7.55822 9.45173 7.52988 9.39498L6.48047 7.29461V10.6339L11.5195 11.5787V4.58403L10.3752 4.43475C10.3737 4.43968 10.372 4.4447 10.3705 4.44962Z" fill="#8E8E8E"/>
</svg>
