<svg width="38" height="38" viewBox="0 0 38 38" fill="none" xmlns="http://www.w3.org/2000/svg">
<path d="M3.2494 32.5844C3.06871 32.2961 2.85564 32.0701 2.62241 31.9194C2.15984 31.6027 1.641 31.6027 1.17843 31.9194C0.945203 32.0701 0.73213 32.2961 0.551435 32.5844C0.37846 32.8855 0.242868 33.2406 0.15244 33.6293C0.00694076 34.206 -0.0328119 34.8416 0.0381982 35.4559C0.109208 36.0702 0.287799 36.6356 0.551435 37.0809C0.736115 37.3607 0.948179 37.5856 1.17843 37.7459C1.40586 37.9135 1.65177 38 1.90042 38C2.14907 38 2.39498 37.9135 2.62241 37.7459C2.85266 37.5856 3.06472 37.3607 3.2494 37.0809C3.51304 36.6356 3.69163 36.0702 3.76264 35.4559C3.83365 34.8416 3.7939 34.206 3.6484 33.6293C3.55797 33.2406 3.42238 32.8855 3.2494 32.5844ZM9.50033 6.33321H36.1C36.6039 6.33321 37.0872 5.99959 37.4435 5.40573C37.7998 4.81188 38 4.00644 38 3.16661C38 2.32677 37.7998 1.52133 37.4435 0.927478C37.0872 0.333624 36.6039 0 36.1 0H9.50033C8.99643 0 8.51316 0.333624 8.15685 0.927478C7.80053 1.52133 7.60035 2.32677 7.60035 3.16661C7.60035 4.00644 7.80053 4.81188 8.15685 5.40573C8.51316 5.99959 8.99643 6.33321 9.50033 6.33321ZM3.2494 16.7513C2.98222 16.312 2.64294 16.0143 2.27436 15.896C1.90579 15.7776 1.52443 15.8439 1.17843 16.0864C0.948179 16.2467 0.736115 16.4716 0.551435 16.7513C0.37846 17.0525 0.242868 17.4076 0.15244 17.7963C0.0519213 18.1754 0 18.5852 0 18.9996C0 19.414 0.0519213 19.8239 0.15244 20.2029C0.248658 20.5867 0.383609 20.9401 0.551435 21.2479C0.736115 21.5276 0.948179 21.7525 1.17843 21.9129C1.40586 22.0804 1.65177 22.167 1.90042 22.167C2.14907 22.167 2.39498 22.0804 2.62241 21.9129C2.85266 21.7525 3.06472 21.5276 3.2494 21.2479C3.41723 20.9401 3.55218 20.5867 3.6484 20.2029C3.74892 19.8239 3.80084 19.414 3.80084 18.9996C3.80084 18.5852 3.74892 18.1754 3.6484 17.7963C3.55797 17.4076 3.42238 17.0525 3.2494 16.7513ZM36.1 15.833H9.50033C8.99643 15.833 8.51316 16.1667 8.15685 16.7605C7.80053 17.3544 7.60035 18.1598 7.60035 18.9996C7.60035 19.8395 7.80053 20.6449 8.15685 21.2388C8.51316 21.8326 8.99643 22.1662 9.50033 22.1662H36.1C36.6039 22.1662 37.0872 21.8326 37.4435 21.2388C37.7998 20.6449 38 19.8395 38 18.9996C38 18.1598 37.7998 17.3544 37.4435 16.7605C37.0872 16.1667 36.6039 15.833 36.1 15.833ZM3.2494 0.918315C3.06871 0.630026 2.85564 0.404041 2.62241 0.253328C2.27641 0.0108314 1.89505 -0.0554217 1.52648 0.0629274C1.1579 0.181276 0.818618 0.478925 0.551435 0.918315C0.383609 1.22611 0.248658 1.57955 0.15244 1.96329C0.0519213 2.34234 0 2.75219 0 3.16661C0 3.58102 0.0519213 3.99087 0.15244 4.36992C0.248658 4.75366 0.383609 5.1071 0.551435 5.4149C0.736115 5.6946 0.948179 5.91952 1.17843 6.07988C1.52443 6.32238 1.90579 6.38863 2.27436 6.27028C2.64294 6.15193 2.98222 5.85429 3.2494 5.4149C3.41723 5.1071 3.55218 4.75366 3.6484 4.36992C3.74892 3.99087 3.80084 3.58102 3.80084 3.16661C3.80084 2.75219 3.74892 2.34234 3.6484 1.96329C3.55218 1.57955 3.41723 1.22611 3.2494 0.918315ZM36.1 31.6661H9.50033C8.99643 31.6661 8.51316 31.9997 8.15685 32.5935C7.80053 33.1874 7.60035 33.9928 7.60035 34.8327C7.60035 35.6725 7.80053 36.4779 8.15685 37.0718C8.51316 37.6656 8.99643 37.9993 9.50033 37.9993H36.1C36.6039 37.9993 37.0872 37.6656 37.4435 37.0718C37.7998 36.4779 38 35.6725 38 34.8327C38 33.9928 37.7998 33.1874 37.4435 32.5935C37.0872 31.9997 36.6039 31.6661 36.1 31.6661Z" fill="#FFCB45"/>
</svg>
